<?xml version="1.0" encoding="utf-8" ?><svg xmlns="http://www.w3.org/2000/svg" xmlns:xlink="http://www.w3.org/1999/xlink" width="841" height="1137" viewBox="0 0 841 1137"><path fill="#E73F2A" transform="scale(4.12255 4.11957)" d="M99.3502 18.3388C99.4021 18.3585 99.455 18.3759 99.5059 18.398C100.414 18.7919 164.188 128.828 170.54 140.416C172.787 144.515 174.888 148.626 176.636 152.969C182.272 166.965 183.975 183.65 180.455 198.408C179.271 203.373 177.371 208.164 175.373 212.848C167.058 232.35 149.629 248.962 130.03 256.838C109.63 264.905 86.857 264.514 66.7463 255.75C48.1964 247.834 31.9751 232.139 24.417 213.268C19.0302 199.818 15.98 184.6 19.0956 170.267C19.5359 168.242 19.8739 166.098 20.6918 164.187C21.0609 163.896 21.3886 163.793 21.8523 163.785C23.9316 163.747 31.6061 165.683 33.0055 167.117C33.3642 167.484 33.5565 167.962 33.5348 168.478C33.4889 169.574 32.8832 170.867 32.6115 171.946C32.0458 174.253 31.7662 176.621 31.779 178.997C31.3208 193.288 34.5297 205.465 41.8656 217.729C51.0425 233.071 67.163 243.069 84.2467 247.357C90.5168 248.931 96.8931 249.266 103.321 248.875C115.917 248.108 124.751 245.393 135.534 238.916C151.238 229.484 162.941 212.708 167.323 195.028C169.676 185.537 169.087 173.102 166.207 163.804C163.435 154.858 158.645 146.877 154.167 138.732C146.549 125.08 138.73 111.543 130.71 98.1239C120.305 80.4379 110.441 62.4016 99.8291 44.8404C96.9073 50.9171 93.3432 56.5571 90.001 62.4007C87.4795 66.8094 85.2125 72.3508 81.6996 75.9929C77.9021 74.1149 74.2588 71.9139 70.5917 69.7958C73.2062 64.4601 76.3638 59.3214 79.3121 54.161L92.5948 30.5684C94.8334 26.5388 97.6086 22.6032 99.3502 18.3388Z"/><path fill="#077DC0" transform="scale(4.12255 4.11957)" d="M27.7061 76.672C31.422 76.4152 35.4327 76.7757 39.176 76.7902C48.0611 76.8246 61.9829 75.8351 70.0946 78.374C74.2582 79.6772 78.0675 82.195 80.1213 86.1462C82.7882 91.2769 83.0453 99.5784 81.3026 105.059C79.6455 110.271 75.9095 112.968 71.2624 115.394C72.4924 115.645 73.5856 115.965 74.7122 116.535C78.8472 118.629 81.5123 121.549 82.9595 125.98C85.4683 133.661 84.3796 142.366 80.7823 149.503C80.6153 149.719 80.4389 149.928 80.2539 150.129C78.1972 152.373 75.9057 154.416 73.0785 155.624C62.5701 160.116 39.4291 157.3 27.173 157.895C26.8667 155.503 25.9663 150.499 27.682 148.507C28.5325 147.52 29.578 146.841 30.1553 145.628C30.6876 144.51 30.8666 143.341 30.9333 142.118C31.1583 137.993 31.0064 133.792 31.0072 129.659L31.0078 107.225L31.0124 96.0881C31.0231 94.1688 31.2841 92.0559 30.9459 90.1683C30.504 87.7016 28.0438 87.6357 27.3628 85.5757C26.6332 83.3688 26.6521 78.7174 27.7061 76.672ZM64.7373 143.789C67.494 139.729 68.4164 135.25 67.4816 130.432C66.9572 127.729 66.0097 125.117 63.6024 123.534C58.5791 120.229 52.4934 122.463 47.0339 121.483C46.9595 129.727 47.2752 138.287 46.9843 146.465C53.1649 145.763 59.2588 147.848 64.7373 143.789ZM46.9887 88.3713C47.0041 95.6651 47.1252 102.976 46.9908 110.268C51.7544 110.252 57.2946 110.868 61.7587 108.968C64.2137 107.295 65.5575 104.943 66.1026 102.04C66.7152 98.7763 66.4562 94.4921 64.4738 91.6999C62.9312 89.5273 60.7271 88.8959 58.2284 88.4923C55.5814 88.0647 52.484 87.8114 49.8145 88.1388C48.8741 88.2057 47.9234 88.2472 46.9887 88.3713Z"/></svg>