<?xml version="1.0" encoding="utf-8" ?>
<svg xmlns="http://www.w3.org/2000/svg" xmlns:xlink="http://www.w3.org/1999/xlink" width="1108" height="970">
	<path fill="#FEFEFE" d="M0 0L1107.05 0C1107.64 1.04352 1107.88 1.76387 1107.94 2.96219C1108.32 11.2807 1108 19.7337 1108 28.071L1108.01 76.2851L1108.01 222.581L1108.01 808.147L1108 929.696C1108 935.834 1108.92 964.441 1107.73 968.534C1107.58 969.046 1107.29 969.525 1107.05 970L0 970L0 0Z"/>
	<path fill="#305674" d="M263.198 225.416C265.607 221.248 282.497 203.527 286.809 202.378C287.28 202.252 287.763 202.168 288.224 202.009C289.398 201.606 290.083 201.27 290.629 200.159L289.478 199.462C291.115 195.735 298.175 195.21 299.964 191.407C301.708 187.701 313.521 179.909 317.457 177.751L317.905 177.961C317.181 178.948 316.473 179.822 315.992 180.955C319.267 178.601 322.617 176.315 325.634 173.63L324.792 173.4L324.576 172.947C330.706 169.144 336.24 164.78 342.197 160.762C347.449 157.219 353.049 154.062 358.482 150.799C359.223 151.278 360.109 151.613 361.011 151.586C364.68 151.478 369.792 146.76 373.097 145.061C375.75 143.698 378.95 143.164 381.724 142.005C385.934 140.246 389.885 137.86 394.068 136.015C406.701 130.444 419.291 124.713 432.3 120.046C439.256 117.551 446.799 115.942 453.933 113.922C461.458 111.79 468.94 109.067 476.537 107.276C480.439 106.356 484.463 105.939 488.4 105.183C508.764 101.273 525.252 99.0262 545.972 97.2373C557.399 96.2506 568.771 97.2867 580.225 96.2408C582.768 96.4586 587.306 97.8059 589.591 97.3298C615.423 98.8572 641.994 101.391 667.184 107.621C676.328 109.882 685.21 113.23 694.199 116.024C707.059 120.022 720.907 124.133 732.677 130.857L733.029 132.284L736.153 132.725L734.851 133.398L734.975 134.228L738.717 136.236C740.848 137.358 742.52 138.965 744.284 140.576C737.338 138.713 724.894 133.571 718.748 129.911C718.11 131.137 717.627 131.722 716.562 132.603L716.557 132.857C721.243 134.428 733.287 140.601 737.897 143.276C736.338 143.081 734.72 142.41 733.457 143.548C733.244 143.74 733.07 143.972 732.877 144.184C725.396 142.355 715.097 136.448 706.608 133.963C699.04 131.747 691.342 129.965 683.721 127.941C678.105 126.449 672.622 124.495 666.989 123.075C655.287 120.125 642.862 117.892 630.933 115.96C622.304 114.563 613.154 114.051 604.428 113.059C597.108 112.227 579.524 111.231 572.662 112.797C571.389 113.087 570.324 113.994 569.325 114.79L571.173 116.359C578.279 116.386 585.433 116.034 592.529 116.271C609.426 116.836 627.323 119.143 643.796 122.939C649.151 124.173 653.855 126.813 659.09 128.087L660.571 129.928L660.861 131.456L659.996 132.514L657.007 133.769C655.187 133.129 652.5 132.679 650.724 133.629C650.557 133.719 650.418 133.855 650.265 133.967C650.458 135.141 650.178 134.764 651.129 135.454C653.96 137.508 698.446 149.395 700.912 148.809C701.082 148.768 701.24 148.688 701.404 148.627C701.885 147.388 701.516 147.015 701.133 145.806C706.551 146.117 724.975 156.256 730.241 159.231C730.534 160.317 730.638 159.877 730.279 160.588L730.277 161.603C731.413 162.534 732.571 163.326 733.241 164.669C735.341 166.15 737.525 167.521 739.974 168.348C738.728 169.033 737.455 169.658 736.18 170.288L737.452 171.848L737.056 172.316L734.061 170.66C736.02 173.854 752.551 182.098 756.74 183.313L757.156 183.054L755.903 180.968C761.655 181.702 782.628 196.908 789.942 200.549L790.385 199.645L790.969 198.659L804.342 208.12C804.714 207.454 804.78 207.569 804.758 206.88C804.697 204.931 803.468 203.822 802.081 202.668L802.861 201.45C805.14 205.445 814.818 208.792 814.327 213.927L813.261 214.812C824.718 219.007 865.816 260.859 871.218 271.962L870.754 272.411C863.72 269.184 860.456 260.484 853.993 256.192C859.473 263.692 864.539 271.485 869.169 279.537C868.569 280.3 868.947 279.977 867.997 280.457L868.875 281.651L870.484 281.762L871.176 283.172C870.281 283.3 869.989 283.171 869.153 282.889C869.646 286.079 872.881 290.131 874.242 293.187C875.98 297.087 881.955 303.363 881.563 307.514L880.922 307.604C879.744 305.469 878.356 300.391 875.954 299.609C875.648 306.546 883.297 312.397 885.208 318.745C884.234 319.198 883.497 319.143 882.509 318.705C881.888 318.43 881.266 317.899 880.733 317.5L880.727 317.749L881.691 318.307C881.254 319.119 881.063 319.076 881.3 320.008C882.143 323.314 882.047 326.54 880.992 329.801L880.246 330.435C877.641 328.285 875.765 325.191 873.539 322.634C869.467 317.997 865.275 313.467 860.968 309.048C857.923 305.902 849.735 299.427 847.991 297.097C840.811 287.504 835.948 276.945 826.598 269.04C828.915 272.821 831.673 276.638 833.567 280.637C831.964 280.552 830.811 280.548 829.283 281.068L826.885 280.094L826.403 280.427C828.179 284.496 833.065 288.74 836.038 292.089C843.182 300.289 873.971 342.412 875.15 350.519C880.613 358.263 898.523 396.664 898.391 404.66C900.275 409.032 899.475 412.641 898.934 417.224L897.928 417.352C897.406 417.672 896.668 417.897 896.487 418.525C895.815 420.858 900.409 436.349 901.208 439.725C905.615 458.353 907.96 477.773 908.762 496.887C909.77 520.895 908.622 546.095 904.528 569.787C902.813 579.713 899.796 589.334 898.133 599.238C899.587 595.664 901.002 592.074 902.38 588.471C902.237 591.062 902.085 593.633 902.18 596.23C906.532 585.276 909.652 560.443 911.434 547.854C912.116 543.041 912.249 535.754 914.277 531.453C915.564 525.672 915.549 519.459 915.888 513.544C916.216 515.213 916.618 516.843 917.061 518.485L917.598 518.271L918.576 515.276L919.612 514.764L919.917 513.636L920.691 513.36L921.086 513.665L920.125 513.988L921.367 514.87L921.539 517.214C924.435 524.394 922.689 532.473 921.946 539.894C918.589 573.404 911.094 605.088 897.881 636.142C893.446 646.6 888.784 656.961 883.897 667.216L885.211 668.355C884.828 673.798 879.752 680.58 877.053 685.307C857.568 720.185 832.171 751.413 801.995 777.596C775.229 800.81 734.304 827.585 700.477 838.37C666.656 852.468 624.282 861.08 587.675 862.78C571.142 863.548 554.449 862.935 537.947 861.814C528.672 861.184 510.963 859.92 502.613 856.674L500.795 858.824C505.54 859.734 510.247 860.899 514.995 861.763L514.915 862.452L514.417 863.082C511.172 863.263 506.597 861.055 503.299 860.378C496.779 859.04 490.159 858.316 483.655 856.833C462.632 852.04 440.788 844.309 421.44 834.748C405.822 826.481 389.881 819.409 375.096 809.52C319.096 774.114 273.843 724.069 244.234 664.8C237.886 652.321 233.627 638.914 227.555 626.344C230.156 637.5 234.307 648.028 238.516 658.647L238.188 658.299C238.488 660.509 239.622 662.258 240.685 664.178C243.812 668.026 247.879 673.936 249.519 678.583L248.948 678.778L246.909 675.823L246.346 675.974C246.268 676.942 246.39 677.732 246.569 678.683L245.604 680.085C247.337 682.702 248.821 684.869 249.595 687.943C250.314 689.191 252.462 691.817 252.215 693.232C252.135 693.695 251.943 694.095 251.764 694.521L251.486 695.261C255.801 702.817 260.929 709.859 265.849 717.026C287.526 748.596 310.615 772.804 340.064 797.327C350.956 806.397 361.798 815.119 374.098 822.22C374.959 822.718 378.781 824.557 378.579 825.315L375.876 825.199C377.735 829.807 391.539 833.029 395.176 838.714C395.959 839.937 396.551 840.179 397.962 840.487C398.861 840.683 399.806 840.763 400.72 840.865L402.512 841.896L402.459 842.863L400.719 842.609L400.801 843.292C405.747 845.596 410.775 847.729 415.701 850.072C423.349 853.708 430.526 857.702 438.775 859.909L440.298 860.56C447.188 862.641 453.763 865.586 460.696 867.512C471.829 870.605 483.255 872.58 494.361 875.684C494.268 877.02 494.206 877.743 493.508 878.931C497.762 881.842 502.572 880.096 505.986 882.169L504.416 883.134C502.734 882.881 501.374 882.693 499.692 883.004L499.477 883.636C501.07 885.074 504.098 885.214 506.164 885.764C500.754 886.607 495.381 884.41 490.123 883.404C485.119 882.446 480.036 882.099 475.046 881C447.609 874.954 419.21 864.635 393.813 852.758L392.829 854.2L393.504 854.695L393.21 855.001C389.248 854.098 385.099 852.695 381.596 850.615L377.949 848.471C375.746 849.36 374.089 850.436 372.195 851.833C375.965 854.264 379.703 856.794 383.596 859.023L383.404 860.302C373.361 855.376 363.48 850.282 353.955 844.395C351.591 842.934 349.719 840.72 347.449 839.341C346.261 838.619 344.747 838.906 343.502 838.142C340.85 836.513 338.446 833.998 335.896 832.144C312.909 815.431 293.468 795.773 273.83 775.351C266.52 767.749 257.329 758.735 250.608 750.827C246.473 745.961 242.444 740.54 238.963 735.196C236.191 730.942 233.706 726.122 230.379 722.318C229.887 722.881 229.906 723.017 229.15 723.217C228.793 721.688 228.738 720.029 228.276 718.551C227.378 715.674 223.967 714.812 222.745 712.418C221.915 710.795 222.171 708.628 221.383 706.919C219.651 703.166 216.55 699.531 214.345 695.995C211.049 690.708 207.993 685.02 205.117 679.486C200.503 670.609 198.757 660.209 193.778 651.513L193.389 650.847C193.113 654.909 195.442 660.231 195.754 664.541C191.874 657.5 193.766 657.395 191.808 651.675C191.434 650.583 191.25 650.457 190.277 649.988L188.446 651.41C187.658 650.345 188.59 649.863 188.562 648.727C188.518 646.953 186.897 643.841 186.261 642.097L185.095 642.955C183.657 641.648 182.47 638.072 182.243 636.151C182.114 635.058 182.025 635.499 182.67 634.616L184.183 635.446C182.367 629.534 179.438 622.869 179.28 616.686C179.115 615.469 178.555 614.127 178.184 612.944C177.224 611.816 177.324 610.465 177.233 609.062L177.19 608.332L176.828 608.558C176.61 610.043 176.382 611.527 176.144 613.009C173.525 609.836 176.136 607.964 175.457 604.695C174.829 601.675 172.454 599.592 172.234 596.191C171.596 593.34 171.36 590.062 170.19 587.356C169.698 586.218 169.677 585.767 169.759 584.521L169.792 584.076L168.915 583.153L167.68 584.963C167.37 599.347 183.866 649.64 190.713 664.097L191.091 661.236C192.687 664.767 191.824 668.805 193.419 672.411C198.861 684.717 205.375 696.134 211.884 707.854C214.876 713.241 217.308 718.941 220.355 724.296C223.034 729.003 226.484 733.262 229.508 737.749C233.009 742.945 236.233 748.268 240.032 753.263C244.821 759.442 249.795 765.474 254.947 771.353C256.742 773.374 258.931 775.124 260.597 777.241C261.829 778.808 262.746 780.606 263.988 782.181C269.836 789.596 279.771 799.999 287.263 805.649L283.531 806.218C279.331 802.929 275.709 798.627 271.955 794.831C248.852 771.473 230.612 745.282 213.496 717.404C213.002 716.258 212.083 715.216 211.351 714.203C209.861 711.156 208.01 708.304 206.446 705.294C203.224 699.093 200.529 692.874 196.425 687.171C196.224 687.173 196.021 687.211 195.823 687.176C194.314 686.911 193.702 685.309 192.952 684.121C190.798 680.709 185.659 673.502 186.616 669.274L188.622 668.729C184.446 657.484 179.496 646.288 176.055 634.774C173.4 625.887 171.663 616.632 169.207 607.669C167.844 602.695 165.296 597.536 164.984 592.41L163.595 595.791C163.612 596.056 163.632 596.32 163.645 596.584C163.735 598.388 163.706 596.812 163.58 598.114C163.448 599.479 165.704 606.901 165.919 609.527C165.988 610.372 166.173 611.121 166.392 611.936L166.032 612.792L162.669 610.792C161.582 607.605 161.028 604.135 160.171 600.863C154.329 578.565 150.573 555.115 150.337 532.026C149.441 527.519 149.586 522.258 149.47 517.651C148.914 491.885 150.829 466.125 155.191 440.725C155.906 436.586 156.23 432.285 157.222 428.215C158.404 435.295 153.813 457.686 152.957 466.461C153.49 468.711 153.545 471.063 154.095 473.41C155.311 459.567 156.677 445.015 159.92 431.496C162.053 422.605 165.65 413.861 167.546 405.008C168.142 402.229 168.025 399.373 168.328 396.564C169.37 386.896 171.575 381.644 176.621 373.666L176.123 373.187L175.13 374.112C174.37 370.109 179.07 364.477 180.558 360.839C180.94 359.905 180.106 358.945 180.547 357.648C182.912 350.697 185.72 343.701 188.558 336.928C191.744 329.322 195.455 321.814 199.003 314.366C200.162 311.932 201.683 309.736 202.649 307.214C202.706 307.065 202.76 306.914 202.816 306.764C204.367 303.82 206.79 301.528 209.059 299.133C209.106 298.31 209.24 297.799 209.489 297.026C210.732 297.036 210.779 297.52 211.619 298.369C213.758 295.296 215.454 291.829 217.476 288.664C223.83 278.715 230.398 268.74 237.405 259.24C239.2 256.222 243.541 252.559 244.442 249.373C244.696 248.472 244.995 248.011 245.543 247.264L244.598 245.844C245.289 242.96 249.773 240.272 252.069 238.627L253.216 239.212C257.465 235.808 259.569 229.637 263.198 225.416Z"/>
	<path fill="#6F8CA2" d="M700.477 838.37L702.632 836.515L702.54 835.645C701.714 835.935 701.536 835.774 700.709 835.586C766.889 806.831 819.947 767.241 860.556 706.925C869.229 694.043 876.081 680.556 883.897 667.216L885.211 668.355C884.828 673.798 879.752 680.58 877.053 685.307C857.568 720.185 832.171 751.413 801.995 777.596C775.229 800.81 734.304 827.585 700.477 838.37Z"/>
	<path fill="#EDEEEF" d="M374.498 807.482C366.637 802.448 326.419 771.955 324.381 765.28C326.023 765.471 329.231 768.889 330.315 770.202C333.34 773.866 338.005 777.126 341.649 780.271C377.025 810.805 420.732 832.615 464.75 847.652C475.183 851.216 489.14 855.918 500.061 856.756C500.903 856.82 501.774 856.756 502.613 856.674L500.795 858.824C505.54 859.734 510.247 860.899 514.995 861.763L514.915 862.452L514.417 863.082C511.172 863.263 506.597 861.055 503.299 860.378C496.779 859.04 490.159 858.316 483.655 856.833C462.632 852.04 440.788 844.309 421.44 834.748C405.822 826.481 389.881 819.409 375.096 809.52L374.498 807.482Z"/>
	<path fill="#466D8B" d="M422.235 834.008C429.997 835.983 437.212 840.583 444.855 843.249C455.84 847.082 467.142 851.43 478.406 854.247C485.793 856.094 493.382 857.108 500.795 858.824C505.54 859.734 510.247 860.899 514.995 861.763L514.915 862.452L514.417 863.082C511.172 863.263 506.597 861.055 503.299 860.378C496.779 859.04 490.159 858.316 483.655 856.833C462.632 852.04 440.788 844.309 421.44 834.748L422.235 834.008Z"/>
	<path fill="#6F8CA2" d="M374.498 807.482C389.837 817.189 405.65 826.561 422.235 834.008L421.44 834.748C405.822 826.481 389.881 819.409 375.096 809.52L374.498 807.482Z"/>
	<path fill="#305674" d="M152.711 525.735L153.362 523.072L153.796 523.188C155.635 527.149 155.222 535.104 154.362 539.336C154.756 540.572 154.6 540.859 155.716 541.618C156.888 539.559 156.874 536.299 157.161 533.947C157.481 535.826 158.217 538.273 157.847 540.141C158.491 553.013 160.37 565.769 162.409 578.482C163.14 583.038 164.934 587.84 164.984 592.41L163.595 595.791C163.612 596.056 163.632 596.32 163.645 596.584C163.735 598.388 163.706 596.812 163.58 598.114C163.448 599.479 165.704 606.901 165.919 609.527C165.988 610.372 166.173 611.121 166.392 611.936L166.032 612.792L162.669 610.792C161.582 607.605 161.028 604.135 160.171 600.863C154.329 578.565 150.573 555.115 150.337 532.026C150.5 529.947 150.172 527.546 151.214 525.758L152.711 525.735Z"/>
	<path fill="#EDEEEF" d="M157.322 549.667C157.433 546.551 156.761 543.569 157.193 540.441L157.847 540.141C158.491 553.013 160.37 565.769 162.409 578.482C163.14 583.038 164.934 587.84 164.984 592.41L163.595 595.791C160.156 584.346 160.574 575.991 159.277 564.606C158.908 561.369 157.678 557.931 157.645 554.736C157.627 553.03 157.474 551.364 157.322 549.667Z"/>
	<path fill="#6F8CA2" d="M157.161 533.947C157.481 535.826 158.217 538.273 157.847 540.141L157.193 540.441C156.761 543.569 157.433 546.551 157.322 549.667C156.159 550.995 156.488 553.091 155.42 554.745L154.926 554.316L155.247 554.825L155.892 553.704L154.765 553.146C154.643 549.49 152.689 544.196 153.013 541.127C153.134 539.984 153.484 539.904 154.362 539.336C154.756 540.572 154.6 540.859 155.716 541.618C156.888 539.559 156.874 536.299 157.161 533.947Z"/>
	<path fill="#EDEEEF" d="M842.292 305.028C839.481 300.013 834.667 296.132 832.046 291.038L832.901 290.927L832.392 291.356L833.399 291.15L835.262 292.586L836.038 292.089C843.182 300.289 873.971 342.412 875.15 350.519C880.613 358.263 898.523 396.664 898.391 404.66L896.47 402.602C888.78 394.085 888.821 387.097 885.989 376.66C883.24 371.621 882.079 365.771 879.375 360.728C876.107 354.632 871.992 349.303 868.051 343.67C864.412 338.47 861.037 333.064 857.44 327.827C856.06 323.922 845.479 306.856 842.292 305.028Z"/>
	<path fill="#98AABA" d="M836.038 292.089C843.182 300.289 873.971 342.412 875.15 350.519C873.268 349.56 867.738 338.553 866.169 335.983C856.857 320.724 846.372 306.553 835.262 292.586L836.038 292.089Z"/>
	<path fill="#FEFEFE" d="M885.989 376.66L886.891 376.667C889.76 384.127 896.01 394.869 896.47 402.602C888.78 394.085 888.821 387.097 885.989 376.66Z"/>
	<path fill="#FEFEFE" d="M604.117 103.257C621.499 104.275 640.996 107.375 657.908 111.529C670.041 114.509 681.805 118.32 694.014 121.013C698.68 122.042 702.434 124.971 707.184 125.688C706.315 127.378 706.182 127.836 704.515 128.867C695.026 123.059 660.684 114.043 648.662 111.747C645.223 111.09 641.691 110.906 638.227 110.384C629.675 109.094 621.237 107.411 612.542 107.74C611.223 108.034 607.736 106.63 606.481 106C605.035 105.274 604.67 104.737 604.117 103.257Z"/>
	<path fill="#EDEEEF" d="M163.403 455.972C163.534 458.519 163.023 463.181 164.223 465.29C164.093 467.108 163.996 468.929 163.931 470.752C163.732 475.739 163.294 480.739 163.332 485.73C163.063 487.273 162.614 488.821 163.06 490.361C162.23 507.466 160.939 525.894 163.762 542.838C163.106 544.839 163.13 547.26 163.349 549.34C163.835 553.958 165.347 558.566 166.084 563.179C167.068 569.341 166.711 577.443 168.915 583.153L167.68 584.963L167.223 585.104L166.592 584.62C167.232 579.904 163.065 557.095 162.248 550.447C158.919 523.333 159.194 495.255 162.017 468.116C162.446 463.997 162.207 459.977 163.403 455.972Z"/>
	<path fill="#EDEEEF" d="M513.416 108.531C512.47 108.874 512.852 108.783 512.01 108.941C510.33 109.255 509.085 109.658 507.612 110.536C507.434 110.642 507.263 110.761 507.082 110.863C504.717 112.2 499.4 113.482 496.749 112.824L497.148 112.168C498.478 111.422 499.551 110.96 501.078 110.752C502.294 110.587 503.31 110.374 504.478 109.999L504.541 109.724C502.748 108.497 500.418 108.24 498.321 107.787C502.611 104.847 548.955 101.944 556.421 101.747C565.808 101.5 575.251 101.812 584.632 102.182L585.302 102.774L586.045 102.468L586.016 102.571C584.12 103.345 581.745 103.196 579.711 103.279C573.259 105.255 562.822 101.471 556.824 104.248C553.468 104.39 549.865 104.293 546.57 104.91C535.763 105.731 524.239 105.834 513.631 108.02L513.416 108.531Z"/>
	<path fill="#C4CDD5" d="M251.764 694.521C251.45 693.09 251.181 692.543 250.203 691.452L250.068 691.729C244.641 688.703 230.927 658.636 227.612 652.093L227.979 651.537C227.99 651.558 227.998 651.582 228.014 651.599C231.214 655.016 231.756 661.601 235.104 664.094C234.987 662.843 234.552 661.781 235.351 660.766L236.353 661.148C236.923 662.085 237.399 662.957 238.27 663.651C238.965 664.205 238.686 663.839 239.208 664.546C239.3 664.669 239.378 664.802 239.463 664.93L240.685 664.178C243.812 668.026 247.879 673.936 249.519 678.583L248.948 678.778L246.909 675.823L246.346 675.974C246.268 676.942 246.39 677.732 246.569 678.683L245.604 680.085C247.337 682.702 248.821 684.869 249.595 687.943C250.314 689.191 252.462 691.817 252.215 693.232C252.135 693.695 251.943 694.095 251.764 694.521Z"/>
	<path fill="#6F8CA2" d="M249.595 687.943L248.889 687.578C247.471 685.523 244.768 681.862 244.642 679.352L245.604 680.085C247.337 682.702 248.821 684.869 249.595 687.943Z"/>
	<path fill="#98AABA" d="M579.711 103.279C588.202 107.101 596.027 99.8789 604.117 103.257C604.67 104.737 605.035 105.274 606.481 106C607.736 106.63 611.223 108.034 612.542 107.74C613.413 108.15 614.157 108.568 614.938 109.132L614.548 109.522C610.326 109.122 605.806 110.043 601.693 109.352C599.69 109.015 596.51 107.127 595.294 105.56L596.294 104.494C593.535 103.534 586.438 106.981 583.024 107.46C577.282 108.266 565.541 108.507 559.896 107.223C562.455 105.258 566.871 106.386 569.568 104.641C566.23 103.375 560.466 104.299 556.824 104.248C562.822 101.471 573.259 105.255 579.711 103.279Z"/>
	<path fill="#EDEEEF" d="M577.386 105.257L577.981 105.252C578.326 105.734 578.682 105.951 578.615 106.56C576.811 107.486 575.396 107.334 573.407 107.229L572.202 106.664L572.077 106.03C573.704 105.275 575.616 105.348 577.386 105.257Z"/>
	<path fill="#466D8B" d="M150.337 532.026C149.441 527.519 149.586 522.258 149.47 517.651C148.914 491.885 150.829 466.125 155.191 440.725C155.906 436.586 156.23 432.285 157.222 428.215C158.404 435.295 153.813 457.686 152.957 466.461C151.248 470.984 151.322 520.771 152.711 525.735L151.214 525.758C150.172 527.546 150.5 529.947 150.337 532.026Z"/>
	<path fill="#C4CDD5" d="M179.28 616.686L179.746 616.21C179.74 615.092 179.479 614.384 180.233 613.506C182.559 616.484 185.384 629.259 186.89 633.634C188.713 638.93 191.751 644.403 192.986 649.765C193.059 650.084 193.257 650.531 193.389 650.847C193.113 654.909 195.442 660.231 195.754 664.541C191.874 657.5 193.766 657.395 191.808 651.675C191.434 650.583 191.25 650.457 190.277 649.988L188.446 651.41C187.658 650.345 188.59 649.863 188.562 648.727C188.518 646.953 186.897 643.841 186.261 642.097L185.095 642.955C183.657 641.648 182.47 638.072 182.243 636.151C182.114 635.058 182.025 635.499 182.67 634.616L184.183 635.446C182.367 629.534 179.438 622.869 179.28 616.686Z"/>
	<path fill="#EDEEEF" d="M152.711 525.735C151.322 520.771 151.248 470.984 152.957 466.461C153.49 468.711 153.545 471.063 154.095 473.41C153.687 484.621 153.225 496.092 153.853 507.288C154.112 511.902 155.174 516.549 155.698 521.151C156.182 525.405 156.409 529.732 157.161 533.947C156.874 536.299 156.888 539.559 155.716 541.618C154.6 540.859 154.756 540.572 154.362 539.336C155.222 535.104 155.635 527.149 153.796 523.188L153.362 523.072L152.711 525.735Z"/>
	<path fill="#C4CDD5" d="M789.833 251.255C799.552 255.858 822.562 281.749 829.856 290.441C833.697 295.017 837.54 301.496 842.292 305.028C845.479 306.856 856.06 323.922 857.44 327.827C852.129 323.557 847.863 315.616 843.846 310.099C839.05 303.513 834.128 297.138 828.781 290.989C822.004 283.074 814.898 275.447 807.48 268.128C801.66 262.433 795.488 257.119 789.833 251.255Z"/>
	<path fill="#466D8B" d="M918.576 515.276L919.612 514.764L919.917 513.636L920.691 513.36L921.086 513.665L920.125 513.988L921.367 514.87L921.539 517.214C921.097 525.421 920.348 534.15 918.61 542.188C919.393 545.278 918.126 549.281 917.471 552.339L916.92 552.058C916.61 544.765 919.105 537.106 917.384 529.933C916.545 530.535 915.985 530.932 914.984 531.256C914.751 531.332 914.512 531.388 914.277 531.453C915.564 525.672 915.549 519.459 915.888 513.544C916.216 515.213 916.618 516.843 917.061 518.485L917.598 518.271L918.576 515.276Z"/>
	<path fill="#EDEEEF" d="M918.576 515.276L919.612 514.764L919.917 513.636L920.691 513.36L921.086 513.665L920.125 513.988L921.367 514.87L921.539 517.214C921.097 525.421 920.348 534.15 918.61 542.188C916.95 534.41 920.305 523.858 918.576 515.276Z"/>
	<path fill="#466D8B" d="M263.198 225.416C263.992 224.977 263.702 225.207 264.348 224.574C265.458 223.485 266.349 222.588 267.711 221.825L268.87 222.466C265.596 226.029 252.88 240.741 251.292 244.529L249.662 246.499C246.023 250.314 242.63 254.34 240.53 259.219C240.183 260.262 240.35 260.468 239.356 261.045C238.567 260.494 238.018 259.982 237.405 259.24C239.2 256.222 243.541 252.559 244.442 249.373C244.696 248.472 244.995 248.011 245.543 247.264L244.598 245.844C245.289 242.96 249.773 240.272 252.069 238.627L253.216 239.212C257.465 235.808 259.569 229.637 263.198 225.416Z"/>
	<path fill="#EDEEEF" d="M245.543 247.264L244.598 245.844C245.289 242.96 249.773 240.272 252.069 238.627L253.216 239.212C251.299 242.088 249.015 244.618 246.734 247.207L245.543 247.264Z"/>
	<path fill="#466D8B" d="M163.06 490.361C163.95 493.833 163.149 497.183 163.452 500.662C163.557 501.869 164.215 502.913 164.471 504.08C165.267 507.636 165.932 512.674 165.182 516.227L164.138 516.65C164.119 519.044 166.451 519.13 166.041 522.002L165.41 522.531L164.43 521.723C164.278 525.018 165.62 527.851 165.735 531.057C165.872 534.893 164.329 539.011 163.762 542.838C160.939 525.894 162.23 507.466 163.06 490.361Z"/>
	<path fill="#98AABA" d="M164.471 504.08C165.267 507.636 165.932 512.674 165.182 516.227L164.22 515.158C163.69 511.477 163.774 507.733 164.471 504.08Z"/>
	<path fill="#6F8CA2" d="M513.416 108.531L513.631 108.02C524.239 105.834 535.763 105.731 546.57 104.91C544.819 105.634 543.499 106.03 541.601 106.104C540.85 106.133 541.181 106.087 540.384 106.365L540.087 106.805C543.024 108.19 550.323 104.709 552.189 107.103L551.512 108.537C547.943 108.653 533.851 107.953 531.86 108.382C530.4 108.696 530.55 110.983 528.072 109.751C522.874 107.165 521.016 110.701 516.059 110.326C516.036 110.178 516.019 110.028 515.989 109.88C515.838 109.123 515.887 109.381 515.398 108.58L513.416 108.531Z"/>
	<path fill="#C4CDD5" d="M336.901 818.506C345.901 823.838 354.309 830.055 363.134 835.656C373.058 841.956 383.311 847.492 393.813 852.758L392.829 854.2C379.458 847.917 345.689 828.243 336.901 818.506Z"/>
	<path fill="#EDEEEF" d="M372.195 851.833C368.874 849.218 360.071 844.158 358.313 840.923L359.396 840.323C358.258 839.382 357.101 838.532 356.179 837.372C358.905 836.753 373.075 846.919 377.215 848.248C377.458 848.326 377.704 848.397 377.949 848.471C375.746 849.36 374.089 850.436 372.195 851.833Z"/>
	<path fill="#98AABA" d="M164.223 465.29L165.771 460.496C167.256 461.92 167.904 462.248 167.985 464.42C168.274 472.161 166.76 481.214 165.763 488.921L165.228 489.194L164.907 488.082L163.332 485.73C163.294 480.739 163.732 475.739 163.931 470.752C163.996 468.929 164.093 467.108 164.223 465.29Z"/>
	<path fill="#466D8B" d="M163.931 470.752L164.825 469.076C167.36 472.224 165.091 483.931 164.907 488.082L163.332 485.73C163.294 480.739 163.732 475.739 163.931 470.752Z"/>
	<path fill="#EDEEEF" d="M165.602 445.715C166.031 439.578 167.531 420.782 171.661 416.774C172.108 417.798 167.594 444.746 166.898 448.729C166.632 447.211 166.572 446.892 165.602 445.715Z"/>
	<path fill="#98AABA" d="M172.234 596.191C172.393 596.11 172.555 596.036 172.709 595.947C173.437 595.529 173.927 595.014 174.508 594.421C175.487 595.096 175.522 596.13 175.738 597.287C176.611 601.953 179.678 606.002 180.033 610.628C179.691 611.008 179.33 611.372 178.961 611.727C178.352 612.314 178.575 612.057 178.184 612.944C177.224 611.816 177.324 610.465 177.233 609.062L177.19 608.332L176.828 608.558C176.61 610.043 176.382 611.527 176.144 613.009C173.525 609.836 176.136 607.964 175.457 604.695C174.829 601.675 172.454 599.592 172.234 596.191Z"/>
	<path fill="#EDEEEF" d="M188.622 668.729C190.457 674.676 194.349 679.429 195.933 685.45C196.085 686.026 196.268 686.596 196.425 687.171C196.224 687.173 196.021 687.211 195.823 687.176C194.314 686.911 193.702 685.309 192.952 684.121C190.798 680.709 185.659 673.502 186.616 669.274L188.622 668.729Z"/>
	<path fill="#EDEEEF" d="M802.861 201.45C805.14 205.445 814.818 208.792 814.327 213.927L813.261 214.812C810.144 212.738 807.248 210.479 804.342 208.12C804.714 207.454 804.78 207.569 804.758 206.88C804.697 204.931 803.468 203.822 802.081 202.668L802.861 201.45Z"/>
	<path fill="#EDEEEF" d="M707.184 125.688C711.322 126.544 715.037 127.88 718.748 129.911C718.11 131.137 717.627 131.722 716.562 132.603L716.557 132.857C712.739 131.155 708.574 129.861 704.515 128.867C706.182 127.836 706.315 127.378 707.184 125.688Z"/>
	<path fill="#EDEEEF" d="M209.059 299.133C209.106 298.31 209.24 297.799 209.489 297.026C210.732 297.036 210.779 297.52 211.619 298.369C209.649 303.331 206.154 310.282 202.428 314.109C202.096 312.73 203.162 310.569 203.912 309.339C204.381 308.586 204.87 307.845 205.38 307.118C204.165 307.475 204.008 307.255 202.816 306.764C204.367 303.82 206.79 301.528 209.059 299.133Z"/>
	<path fill="#6F8CA2" d="M202.816 306.764C204.367 303.82 206.79 301.528 209.059 299.133C208.074 301.728 207.212 305.036 205.38 307.118C204.165 307.475 204.008 307.255 202.816 306.764Z"/>
	<path fill="#FEFEFE" d="M165.602 445.715C166.572 446.892 166.632 447.211 166.898 448.729L166.839 449.578C166.794 450.255 166.807 450.795 166.865 451.477C167.096 454.177 166.173 457.798 165.771 460.496L164.223 465.29C163.023 463.181 163.534 458.519 163.403 455.972C163.457 452.531 164.648 448.99 165.602 445.715Z"/>
	<path fill="#C4CDD5" d="M268.87 222.466L271.531 222.607C271.051 223.883 270.512 224.263 269.305 224.907C269.151 224.989 268.985 225.046 268.826 225.118C264.452 227.078 257.437 240.667 251.292 244.529C252.88 240.741 265.596 226.029 268.87 222.466Z"/>
	<path fill="#C4CDD5" d="M733.241 164.669C727.358 163.606 720.299 159.923 715.446 156.416C720.294 158.023 725.217 159.806 730.279 160.588L730.277 161.603C731.413 162.534 732.571 163.326 733.241 164.669Z"/>
	<path fill="#C4CDD5" d="M249.662 246.499L250.007 247.338C247.139 251.346 243.979 255.704 240.53 259.219C242.63 254.34 246.023 250.314 249.662 246.499Z"/>
	<path fill="#C4CDD5" d="M571.173 116.359C567.905 116.454 564.594 116.749 561.402 115.906L561.315 115.49C564.121 114.692 566.413 114.576 569.325 114.79L571.173 116.359Z"/>
	<path fill="#C4CDD5" d="M790.385 199.645C792.195 200.618 793.819 201.528 795.342 202.932L795.445 203.661C793.346 203.252 791.659 201.761 789.942 200.549L790.385 199.645Z"/>
	<path fill="#FEFEFE" d="M538.648 400.913C552.417 401.274 566.141 402.127 579.924 401.892C607.024 401.431 634.739 399.102 661.651 403.069C687.8 406.924 712.984 417.182 729.115 439.051C746.592 462.745 750.775 496.395 746.372 525.057C742.057 553.141 728.414 575.342 705.65 592.122C666.642 618.521 625.087 612.298 580.964 612.329C572.679 612.311 564.394 612.364 556.11 612.488C550.705 612.601 544.35 613.476 539.074 612.54C538.338 611.089 538.216 610.824 538.319 609.214C540.613 606.245 546.482 606.352 550.025 605.513C553.144 604.774 556.727 603.257 558.353 600.311C560.352 596.689 560.774 591.377 561 587.324C561.466 578.936 561.135 570.387 561.115 561.981L561.079 517.98L561.093 462.151C561.106 451.259 562.586 426.197 559.619 416.772C555.826 404.721 546.245 410.084 539.292 406.532C538.291 404.953 538.625 402.726 538.648 400.913Z"/>
	<path fill="#305674" d="M627.029 406.499C631.272 406.295 635.524 406.395 639.752 406.797C654.838 408.133 669.031 413.886 678.781 425.816C699.695 451.409 699.912 501.181 696.916 532.575C694.655 556.272 689.236 580.755 670.047 596.637C663.408 601.741 655.228 604.768 647.06 606.338C638.333 608.015 622.934 609.82 615.241 604.246C611.188 601.31 610.002 596.387 609.432 591.675C608.297 582.285 608.795 572.422 608.788 562.973L608.767 516.754L608.774 459.636C608.778 448.385 608.312 436.934 609.195 425.719C609.571 420.934 609.881 415.312 613.099 411.488C616.512 407.431 622.123 407.001 627.029 406.499Z"/>
	<path fill="#FEFEFE" d="M431.565 397.315C446.77 395.571 462.153 398.338 475.797 405.27C480.812 407.844 486.035 411.254 491.507 412.655C492.443 412.895 493.301 413.106 494.153 412.578C497.597 410.442 498.406 403.36 499.149 399.733L505.95 399.744C504.728 422.511 504.574 445.213 504.461 468.003L497.539 468.047C495.76 449.506 490.032 430.244 476.642 416.694C468.289 408.243 458.043 404.188 446.147 404.235C437.214 404.27 427.952 407.185 421.568 413.64C415.676 419.596 413.63 427.291 413.704 435.499C413.771 442.931 415.82 449.814 420.128 455.897C426.888 465.44 437.082 471.953 446.545 478.527C463.363 490.208 482.375 501.068 497.024 515.459C509.167 527.387 516.095 541.248 516.136 558.424C516.171 573.165 511.882 586.031 501.33 596.529C484.784 612.99 460.971 617.36 438.508 617.31C424.979 617.526 411.581 614.629 399.35 608.844C394.777 606.713 390.025 603.693 385.109 602.529C383.724 602.201 382.643 602.12 381.431 602.954C378.049 605.281 377.459 611.534 376.731 615.221L369.939 615.191C371.297 588.299 371.085 561.265 371.087 534.341L378.055 534.37C378.082 535.193 378.126 536.015 378.187 536.835C379.87 558.7 385.185 585.002 402.711 599.755C412.281 607.811 425.04 610.403 437.309 609.31C447.1 608.438 456.822 604.524 463.162 596.776C469.213 589.382 470.319 579.532 469.305 570.28C468.589 563.379 466.096 556.782 462.071 551.132C448.488 532.105 414.795 515.095 395.93 499.664C382.977 489.069 373.341 475.611 371.752 458.599C370.447 444.615 372.962 430.185 382.163 419.174C394.363 404.574 413.258 398.965 431.565 397.315Z"/>
	<path fill="#FEFEFE" d="M213.339 475.997L214.431 476.029C214.45 476.164 214.472 476.299 214.49 476.435C215.8 486.247 214.888 496.733 215.307 506.648C215.525 511.811 216.46 516.913 216.86 522.059C217.562 531.083 218.01 539.964 219.113 548.959C220.226 558.048 221.096 567.448 223.105 576.376C224.54 582.752 229.181 597.396 229.521 602.644L228.426 603.531C230.628 608.246 234.135 613.218 233.068 618.469L233.619 619.679L235.631 620.023C236.993 623.908 235.955 629.667 237.718 632.954C238.38 632.84 239.003 632.714 239.652 632.555L240.09 633.438L239.117 634.344C239.627 635.421 240.229 636.02 241.045 636.862C248.001 644.032 247.398 659.458 252.218 664.069L251.98 661.394C253.116 662.036 254.595 664.953 254.955 666.259C255.14 666.931 255.106 667.033 255.098 667.636C254.367 667.725 253.718 667.72 252.983 667.666C254.476 672.384 261.145 681.058 263.974 685.585L287.75 723.81C279.954 716.696 273.81 708.127 267.958 699.364C261.462 689.639 240.213 652.023 239.658 641.501C239.629 640.923 239.609 640.344 239.599 639.765C240.05 641.021 240.379 642.253 241.316 643.244L242.565 642.772C241.087 637.804 236.588 634.927 233.923 630.705C232.416 628.318 231.592 625.298 230.687 622.63C223.194 600.55 217.772 577.184 213.829 554.218C212.797 548.208 213.244 542.163 212.785 536.112C212.44 531.572 211.408 527.077 210.901 522.55C209.947 514.024 208.298 493.701 211.977 486.241L212.428 486.399L213.009 488.502C213.277 484.575 211.468 479.615 213.339 475.997Z"/>
	<path fill="#6F8CA2" d="M241.316 643.244L242.565 642.772C243.158 644.555 244.166 647.01 243.93 648.854C243.216 647.973 242.814 647.399 242.517 646.296C242.305 645.505 242.077 644.824 241.723 644.082L241.316 643.244Z"/>
	<path fill="#FEFEFE" d="M586.368 128.304C574.686 125.965 562.954 126.671 551.224 125.449C554.069 123.925 592.08 123.662 596.088 124.811C601.825 125.013 610.34 124.938 615.671 127.148L614.619 128.876C611.174 128.526 607.782 128.948 604.343 129.174C600.419 129.43 589.143 130.738 586.368 128.304Z"/>
	<path fill="#C4CDD5" d="M586.368 128.304C574.686 125.965 562.954 126.671 551.224 125.449C554.069 123.925 592.08 123.662 596.088 124.811C595.799 124.842 595.51 124.876 595.22 124.904C590.341 125.371 585.634 124.596 580.662 125.522C582.495 127.071 585.204 126.134 586.368 128.304Z"/>
	<path fill="#6F8CA2" d="M840.177 727.425L840.703 727.698L840.695 728.345C837.3 733.44 832.639 738.145 828.566 742.737C802.991 771.178 772.857 795.16 739.4 813.698L738.809 813.132C740.573 811.598 742.757 811.003 744.672 809.724C753.424 803.88 762.437 798.484 771.02 792.371C796.915 773.927 818.821 751.946 839.624 728.054L840.177 727.425Z"/>
	<path fill="#C4CDD5" d="M443.688 126.935C438.935 128.647 430.77 133.017 425.835 132.334C430.078 127.394 463.221 119.62 471.301 117.041C474.291 116.086 476.84 114.433 479.734 113.369L480.56 114.807C484.536 115.907 489.667 110.963 494.027 111.592L494.085 112.32C490.695 115.179 455.761 122.879 448.616 125.071L443.688 126.935Z"/>
	<path fill="#C4CDD5" d="M515.877 119.739C516.475 120.122 516.638 120.561 516.989 121.163L516.641 121.965C505.436 125.09 490.599 126.486 478.484 129.187C478.173 128.768 478.358 129.071 478.151 128.176C485.575 124.99 512.999 122.132 515.877 119.739Z"/>
	<path fill="#EDEEEF" d="M549.005 116.548C551.574 116.272 553.656 116.39 556.045 117.413L555.999 117.886C552.214 118.575 547.877 119.807 544.041 119.533C543.717 118.955 543.38 118.385 543.03 117.823C539.473 119.016 536.196 119.628 532.481 120.075C530.403 120.292 528.357 120.42 526.269 120.466C525.308 119.826 525.498 119.98 524.471 120.142C527.705 117.574 544.317 116.911 549.005 116.548Z"/>
	<path fill="#FEFEFE" d="M786.293 241.023C792.488 242.287 802.254 254.746 806.006 259.808C801.984 257.759 787.617 245.032 786.293 241.023Z"/>
	<path fill="#C4CDD5" d="M532.489 111.161L533.021 111.313L533.283 111.977C529.494 114.639 512.767 115.991 507.374 116.545C506.951 116.381 506.674 116.094 506.33 115.804C508.96 113.545 528 111.751 532.489 111.161Z"/>
	<path fill="#98AABA" d="M351.016 162.884L351.148 162.971L351.169 163.621C345.092 169.419 336.583 174.579 329.482 179.104L329.436 178.447C331.279 176.62 332.986 174.454 334.984 172.81C339.338 169.227 346.094 166.1 351.016 162.884Z"/>
	<path fill="#EDEEEF" d="M179.341 379.542C179.968 379.985 180.095 380.22 180.467 380.868C178.136 388.459 176.661 396.312 174.262 403.957L173.938 404.315C173.995 397.662 176.889 385.813 179.341 379.542Z"/>
	<path fill="#C4CDD5" d="M302.942 744.207C307.382 746.047 314.64 755.723 318.165 759.702C312.118 756.893 307.049 749.274 302.942 744.207Z"/>
	<path fill="#6F8CA2" d="M778.885 231.687L779.561 231.513C784.04 234.343 790.941 238.766 793.884 243.099C790.384 242.358 781.173 234.749 778.885 231.687Z"/>
	<path fill="#C4CDD5" d="M287.667 724.319C292.634 727.907 297.299 735.256 301.006 740.216C295.959 737.994 290.561 728.976 287.667 724.319Z"/>
	<path fill="#2B5177" d="M448.616 125.071C449.759 125.356 450.405 125.555 451.296 126.339C449.435 128.129 447.958 129.028 445.345 129.118L444.868 128.739L443.688 126.935L448.616 125.071Z"/>
	<path fill="#6F8CA2" d="M444.868 128.739C446.545 126.844 448.954 126.725 451.296 126.339C449.435 128.129 447.958 129.028 445.345 129.118L444.868 128.739Z"/>
	<path fill="#6F8CA2" d="M191.574 341.238C193.09 336.161 195.063 330.535 197.79 325.983L198.618 326.283C196.051 331.553 195.194 336.416 191.574 341.238Z"/>
	<path fill="#EDEEEF" d="M615.671 127.148C618.732 127.247 621.349 127.109 624.387 127.806C622.3 129.058 617.412 129.301 614.999 128.931L614.619 128.876L615.671 127.148Z"/>
	<path fill="#EDEEEF" d="M197.79 325.983L198.043 325.427C198.851 323.61 199.342 321.97 199.69 320.016L200.158 319.575L201.157 320.023L199.963 319.734L200.388 319.489C200.998 320.312 201.368 320.431 201.278 321.511C201.142 323.156 199.55 324.965 198.618 326.283L197.79 325.983Z"/>
	<path fill="#C4CDD5" d="M213.339 475.997L213.427 475.583C214.007 472.777 213.927 469.726 215.044 467.081C215.455 470.204 215.122 472.975 214.431 476.029L213.339 475.997Z"/>
	<path fill="#C4CDD5" d="M266.592 232.497L267.098 233.205C265.842 235.303 263.754 236.775 261.904 238.337L261.557 237.837C262.807 235.751 264.828 234.15 266.592 232.497Z"/>
	<path fill="#6F8CA2" d="M366.481 152.522L366.976 153.141C365.616 154.846 363.615 155.652 361.716 156.641L361.266 156.135C362.37 154.454 364.749 153.49 366.481 152.522Z"/>
	<path fill="#C4CDD5" d="M182.051 369.891C182.081 370.067 182.123 370.241 182.141 370.418C182.403 372.947 181.452 375.279 179.948 377.239C179.358 374.823 181.06 372.051 182.051 369.891Z"/>
	<path fill="#466D8B" d="M833.567 280.637C833.566 281.049 833.463 281.474 833.564 281.873C834.147 284.167 841.895 292.167 843.706 294.385C850.505 302.709 857.143 311.581 862.968 320.612C892.049 365.701 911.378 416.142 917.532 469.59C918.209 475.469 920.481 488.617 918.671 494.081C913.08 434.765 900.31 386.566 869.575 335.045C865.935 328.942 858.682 315.538 853.63 311.431C852.824 310.782 851.997 310.161 851.148 309.569C850.745 308.55 850.463 307.783 850.253 306.705C849.621 303.466 832.634 283.351 829.283 281.068C830.811 280.548 831.964 280.552 833.567 280.637Z"/>
	<path fill="#305674" d="M781.295 170.717L785.53 172.442C787.445 171.297 788.125 171.329 790.375 171.918C797.122 173.683 804.526 179.641 808.912 184.905C819.812 192.564 830.559 205.902 838.788 216.28C824.793 205.986 812.697 193.298 798.101 183.791C793.832 181.011 786.365 181.708 783.341 177.467C782.671 176.529 782.188 176.054 781.209 175.449C780.689 175.128 780.199 174.778 779.702 174.424L779.868 173.857L780.739 173.559C780.858 172.589 781.077 171.668 781.295 170.717Z"/>
	<path fill="#C4CDD5" d="M785.53 172.442C787.445 171.297 788.125 171.329 790.375 171.918C797.122 173.683 804.526 179.641 808.912 184.905C804.923 185.521 789.478 175.027 785.53 172.442Z"/>
	<path fill="#305674" d="M691.316 102.908C695.323 103.033 698.967 103.57 702.809 104.758C710.537 107.147 717.611 111.068 724.958 114.374C733.279 118.119 742.029 120.711 749.641 126.017L749.732 126.832L748.628 126.766C744.092 124.975 739.392 123.57 734.909 121.648C731.912 120.363 728.891 118.161 725.798 117.254C724.279 116.809 722.378 117.146 720.812 117.223C714.898 117.516 694.911 110.574 690.746 106.395C689.857 105.503 689.972 105.226 690.012 104.047L691.316 102.908Z"/>
	<path fill="#466D8B" d="M659.09 128.087C680.081 131.418 700.334 138.653 720.093 146.343L720.486 144.769C717.708 143.918 714.649 142.381 712.277 140.689C722.388 143.943 741.144 150.241 748.788 157.845L749.135 158.849C746.48 158.339 743.045 157.085 740.5 158.131C741.221 158.682 742.066 159.077 742.862 159.512L742.199 160.457C734.526 157.111 727.224 152.068 719.613 148.361C707.154 142.291 693.151 138.575 680.004 134.225C675.945 132.883 671.55 130.73 667.298 130.295L666.759 130.743L668.021 132.791L666.946 132.655C666.282 131.591 665.733 130.771 664.81 129.903C663.159 129.507 662.217 129.535 660.571 129.928L659.09 128.087Z"/>
	<path fill="#EDEEEF" d="M720.486 144.769C724.286 145.828 739.244 152.344 741.238 155.342C741.339 155.494 741.396 155.67 741.475 155.834C740.683 156.193 741.091 156.17 740.212 155.84C733.581 153.35 726.229 149.889 720.093 146.343L720.486 144.769Z"/>
	<path fill="#305674" d="M229.563 760.213L231.091 759.097C232.974 759.858 233.986 761.844 235.16 763.475C245.515 774.67 254.658 787.103 265.151 798.248L263.415 799.514C263.261 799.505 263.105 799.515 262.954 799.486C258.484 798.626 242.761 779.446 240.025 774.735C239.562 774.352 239.104 773.949 238.63 773.579C234.379 770.26 231.12 764.548 229.076 759.593L229.563 760.213Z"/>
	<path fill="#EDEEEF" d="M229.563 760.213L231.091 759.097C232.974 759.858 233.986 761.844 235.16 763.475C236.909 766.982 239.859 769.748 240.99 773.532L240.025 774.735C239.562 774.352 239.104 773.949 238.63 773.579C234.379 770.26 231.12 764.548 229.076 759.593L229.563 760.213Z"/>
	<path fill="#466D8B" d="M240.025 774.735C239.562 774.352 239.104 773.949 238.63 773.579C234.379 770.26 231.12 764.548 229.076 759.593L229.563 760.213C233.531 764.328 236.023 770.848 240.99 773.532L240.025 774.735Z"/>
	<path fill="#466D8B" d="M162.669 610.792L166.032 612.792C165.694 614.752 165.829 615.241 166.48 617.139L166.604 613.587C168.39 619.472 169.799 625.202 170.791 631.272C171.105 633.199 175.478 645.167 176.457 646.914C176.735 648.659 176.926 650.418 177.6 652.064C176.717 654.349 177.244 656.946 177.185 659.376C174.017 650.158 162.151 618.621 162.669 610.792Z"/>
	<path fill="#6F8CA2" d="M606.137 96.0076C627.701 93.4982 687.293 106.534 707.303 115.989C704.207 116.924 681.134 109.14 675.975 107.804C663.434 104.559 650.137 101.008 637.321 99.1599C632.503 98.465 608.228 96.7243 606.137 96.0076Z"/>
	<path fill="#98AABA" d="M514.995 861.763C523.763 862.677 532.564 864.29 541.328 864.977C555.341 866.076 569.748 865.609 583.786 865.158C591.866 864.898 599.821 864.181 607.865 863.429C611.368 863.102 615.531 862.054 619.004 862.465C614.155 864.349 607.743 864.566 602.577 865.102C573.18 868.153 544.11 866.909 514.915 862.452L514.995 861.763Z"/>
	<path fill="#466D8B" d="M732.877 144.184C733.07 143.972 733.244 143.74 733.457 143.548C734.72 142.41 736.338 143.081 737.897 143.276C739.12 143.832 740.32 144.403 741.606 144.802L741.122 145.854C742.398 146.173 742.687 145.186 743.692 145.204C745.831 145.241 758.836 152.415 760.631 154.483L760.901 156.109L760.251 157.013C757.075 156.881 751.214 152.618 748.109 151.051L748.038 150.592L751.484 150.735C750.851 149.711 749.629 149.386 748.473 149.11C742.779 147.752 738.079 147.2 732.877 144.184Z"/>
	<path fill="#C4CDD5" d="M897.928 417.352L898.934 417.224C905.435 440.998 909.625 464.59 911.457 489.165C911.697 492.387 912.888 498.304 911.345 501.038C910.684 498.059 910.862 494.605 910.66 491.547C910.268 485.612 909.754 479.685 909.117 473.771C906.98 454.56 903.138 435.952 897.928 417.352Z"/>
	<path fill="#6F8CA2" d="M750.708 165.341L754.336 164.39C754.455 164.544 754.571 164.701 754.693 164.852C759.043 170.245 766.116 172.56 771.739 176.319C775.527 178.851 779.354 181.982 782.931 184.843L782.775 185.368C781.259 184.761 779.742 184.071 778.139 183.738C781.458 186.588 787.791 189.176 789.845 192.944C784.671 189.938 780.05 185.729 774.819 182.971L774.622 182.311L776.918 182.561C774.515 177.605 756.041 169.13 750.708 165.341Z"/>
	<path fill="#466D8B" d="M755.739 146.269C758.339 147.15 760.985 148.023 763.47 149.196C765.523 150.165 781.898 159.148 782.812 160.466L781.856 160.75L780.319 160.813C772.599 155.516 763.368 152.068 755.251 147.309L755.739 146.269Z"/>
	<path fill="#466D8B" d="M265.151 798.248C273.483 806.751 281.422 815.68 289.917 824.003C289.2 823.532 275.468 812.58 275.349 812.45C272.358 809.164 270.745 805.539 267.188 802.644C265.923 801.614 264.806 800.375 263.415 799.514L265.151 798.248Z"/>
	<path fill="#6F8CA2" d="M285.318 797.857C289.849 799.695 312.346 820.545 316.73 825.167C316.479 825.119 316.226 825.081 315.977 825.022C314.172 824.589 287.523 801.129 285.318 797.857Z"/>
	<path fill="#466D8B" d="M681.45 129.528C682.984 129.385 684.482 129.61 685.977 129.975C690.842 131.163 695.56 133.029 700.42 134.297C702.725 134.899 706.109 134.967 708.114 136.062L706.112 136.351C706.433 137.326 707.947 138.054 708.795 138.66L708.994 138.818L708.77 139.084C705.017 137.804 682.606 131.123 681.45 129.528Z"/>
	<path fill="#98AABA" d="M790.385 199.645C786.887 197.448 763.76 182.695 763.202 180.773C771.012 183.867 784.099 193.28 790.969 198.659L790.385 199.645Z"/>
	<path fill="#C4CDD5" d="M741.7 169.888C743.423 170.015 745.227 170.126 746.898 170.585C749.439 171.284 754.882 173.333 756.23 175.588L755.693 177.125C755.14 177.461 754.537 177.63 753.93 177.846C752.432 177.466 743.87 171.313 741.7 169.888Z"/>
	<path fill="#6F8CA2" d="M580.225 96.2408C583.347 95.5918 587.921 95.9474 590.618 94.813L590.378 94.3289C590.04 93.6368 590.163 93.919 589.908 93.1959C593.53 91.8416 601.995 93.4173 605.679 94.6142C601.153 94.715 596.626 94.7389 592.1 94.6859L589.382 96.6299L589.591 97.3298C587.306 97.8059 582.768 96.4586 580.225 96.2408Z"/>
	<path fill="#466D8B" d="M483.78 925.217C488.361 925.401 507.031 927.423 509.778 929.932C502.876 929.295 489.887 928.37 483.78 925.217Z"/>
	<path fill="#EDEEEF" d="M176.457 646.914C177.724 647.285 178.152 647.195 178.828 648.381C180.44 651.212 181.199 654.995 181.986 658.129L181.644 658.489L180.499 657.867L179.735 658.299C179 656.233 178.21 654.171 177.6 652.064C176.926 650.418 176.735 648.659 176.457 646.914Z"/>
	<path fill="#6F8CA2" d="M768.133 130.794C773.833 133.101 780.139 135.359 785.037 139.131C781.703 138.302 772.589 135.989 770.266 133.834C769.441 133.069 768.744 131.747 768.133 130.794Z"/>
	<path fill="#466D8B" d="M494.361 875.684C499.09 876.819 503.832 877.902 508.585 878.933C503.632 880.242 498.432 878.049 493.508 878.931C494.206 877.743 494.268 877.02 494.361 875.684Z"/>
	<path fill="#466D8B" d="M287.263 805.649L287.107 807.479C290.055 810.727 293.108 813.877 296.263 816.923C290.82 814.095 287.661 810.711 283.531 806.218L287.263 805.649Z"/>
	<path fill="#6F8CA2" d="M422.682 839.045C429.663 839.44 438.138 844.747 444.332 847.798C437.173 846.85 429.149 842.133 422.682 839.045Z"/>
	<path fill="#6F8CA2" d="M509.945 929.544C512.683 929.21 530.945 931.278 532.711 932.446C526.565 933.573 515.761 931.843 509.945 929.544Z"/>
	<path fill="#98AABA" d="M400.72 840.865C400.666 840.721 400.624 840.571 400.56 840.432C400.216 839.685 399.698 839.289 399.099 838.756C400.326 838.595 401.235 838.967 402.231 839.78C402.349 839.876 403.154 840.763 403.236 840.846C405.975 843.645 410.993 843.668 414.275 845.738C410.741 845.305 407.474 843.794 404.026 843.386C402.97 843.261 403.471 843.406 402.459 842.863L402.512 841.896L400.72 840.865Z"/>
	<path fill="#98AABA" d="M862.331 221.607C862.667 221.743 863.274 221.968 863.617 222.171C865.234 223.128 872.16 229.499 873.069 231.041C873.593 231.932 873.891 233.033 874.182 234.021C870.07 232.294 865.456 225.185 862.331 221.607Z"/>
	<path fill="#C4CDD5" d="M814.518 185.273L815.406 184.916C820.618 188.155 825.823 193.17 830.148 197.535C826.385 196.482 817.643 188.149 814.518 185.273Z"/>
	<path fill="#98AABA" d="M780.319 160.813L781.856 160.75C784.658 164.764 790.632 165.7 793.713 169.709C789.729 169.1 782.723 163.856 780.319 160.813Z"/>
	<path fill="#C4CDD5" d="M587.335 90.502C589.816 90.3159 594.193 89.5472 596.373 90.7236L596.432 92.141C593.433 92.4242 590.01 93.1314 587.358 91.3974L587.335 90.502Z"/>
	<path fill="#6F8CA2" d="M802.081 202.668C799.314 201.642 794.293 197.98 792.572 195.627C796.306 196.941 799.565 199.3 802.861 201.45L802.081 202.668Z"/>
	<path fill="#C4CDD5" d="M307.573 843.678C308.411 843.746 308.557 843.909 309.24 844.464C312.049 846.742 317.414 848.548 318.98 851.854L318.616 851.947C315.224 850.746 309.453 846.683 307.573 843.678Z"/>
	<path fill="#C4CDD5" d="M213.496 717.404C213.339 718.581 213.352 719.669 213.498 720.845L213.609 721.701L213.15 721.652C211.44 719.066 210.093 716.381 208.737 713.598L209.142 712.89C209.796 713.659 210.408 714.449 211.017 715.254L211.351 714.203C212.083 715.216 213.002 716.258 213.496 717.404Z"/>
	<path fill="#466D8B" d="M780.739 173.559C777.658 170.811 773.699 168.879 770.267 166.558C774.002 167.831 777.691 169.098 781.295 170.717C781.077 171.668 780.858 172.589 780.739 173.559Z"/>
	<path fill="#C4CDD5" d="M238.933 742.127C241.586 744.045 245.721 749.265 246.677 752.393C246.135 752.227 245.82 752.167 245.344 751.909C243.028 750.656 239.63 744.62 238.933 742.127Z"/>
	<path fill="#C4CDD5" d="M465.162 104.149C465.822 103.767 465.974 103.911 466.707 103.99C465.344 105.459 459.1 106.817 456.811 107.778L455.373 107.659L455.013 107.145C457.793 105.008 461.736 104.277 465.162 104.149Z"/>
	<path fill="#6F8CA2" d="M583.927 91.5524L584.596 91.9004L584.778 92.7928C583.058 94.1105 578.054 93.8521 575.768 93.9799C575.434 93.9248 575.028 93.654 574.722 93.4999L575.119 92.823C578.068 92.4929 581.005 92.0692 583.927 91.5524Z"/>
	<path fill="#EDEEEF" d="M438.775 859.909L438.765 858.988C438.106 858.582 437.766 858.399 436.994 858.22L436.908 857.382L437.639 856.753C439.698 856.973 442.541 857.915 443.96 859.474C442.71 859.79 441.515 860.135 440.298 860.56L438.775 859.909Z"/>
	<path fill="#C4CDD5" d="M562.973 90.634C567.432 90.0985 572.592 89.8907 576.904 91.3086C572.655 91.7705 567.73 91.9421 563.489 91.4194L562.973 90.634Z"/>
	<path fill="#466D8B" d="M505.986 882.169L506.517 882.333C510.875 883.646 515.593 884.166 519.784 885.92C516.164 886.009 507.647 884.77 504.416 883.134L505.986 882.169Z"/>
	<path fill="#98AABA" d="M742.862 159.512C746.305 161.639 750.119 164.705 754.336 164.39L750.708 165.341C747.865 164.179 744.755 162.182 742.199 160.457L742.862 159.512Z"/>
	<path fill="#6F8CA2" d="M811.479 198.894C814.597 199.727 819.178 204.046 821.021 206.661C817.01 205.087 814.387 201.94 811.479 198.894Z"/>
	<path fill="#C4CDD5" d="M657.007 133.769L659.996 132.514C660.129 132.64 660.246 132.786 660.395 132.892C662.192 134.164 664.694 133.265 666.519 134.679L666.21 135.231C663.169 135.171 659.949 134.547 657.007 133.769Z"/>
	<path fill="#6F8CA2" d="M510.394 94.781C511.469 94.6219 512.436 94.6809 513.515 94.74C512.617 95.8719 510.379 96.2402 508.998 96.6536C508.079 96.8568 507.189 96.9416 506.252 97.0177L505.688 96.4506C507.102 95.049 508.48 95.0279 510.394 94.781Z"/>
	<path fill="#C4CDD5" d="M677.812 137.457C681.218 137.316 685.99 139.103 688.691 141.17C684.799 141.01 681.232 139.172 677.812 137.457Z"/>
	<path fill="#C4CDD5" d="M383.596 859.023L384.039 859.355C386.481 861.153 389.608 862.263 391.738 864.36C388.705 863.808 386.038 861.825 383.404 860.302L383.596 859.023Z"/>
	<path fill="#98AABA" d="M755.251 147.309C752.964 146.134 750.739 144.887 748.514 143.601L748.326 142.718L747.82 143.026L748.026 142.682L748.039 143.26L748.453 143.598L749.039 142.969C751.309 143.878 753.549 145.169 755.739 146.269L755.251 147.309Z"/>
	<path fill="#C4CDD5" d="M212.071 699.948C214.223 701.734 215.372 705.339 216.388 707.877L215.98 708.005C214.254 707.113 212.698 701.868 212.071 699.948Z"/>
	<path fill="#C4CDD5" d="M522.095 904.349C524.95 903.839 528.764 904.562 531.23 905.999C529.138 905.982 523.633 905.668 522.095 904.349Z"/>
	<path fill="#C4CDD5" d="M396.622 857.433C399.762 857.55 403.563 859.828 406.327 861.246C402.693 861.196 399.701 859.154 396.622 857.433Z"/>
	<path fill="#6F8CA2" d="M261.768 771.906C264.131 773.012 265.917 775.605 267.58 777.558C266.852 777.305 267.016 777.401 266.389 777.043C264.124 775.752 262.424 774.509 261.768 771.906Z"/>
	<path fill="#C4CDD5" d="M653.381 861.841C654.434 861.737 653.907 861.676 654.955 862.062C653.176 863.153 650.951 863.452 648.935 863.917C647.816 863.93 648.332 864.057 647.381 863.574C649.339 862.61 651.261 862.245 653.381 861.841Z"/>
	<path fill="#C4CDD5" d="M528.49 884.545C531.369 884.808 534.719 884.323 537.43 884.926C537.244 885.005 537.058 885.086 536.87 885.163C533.353 886.593 531.795 885.916 528.49 884.545Z"/>
	<path fill="#C4CDD5" d="M964.352 599.297C964.467 599.453 964.613 599.589 964.696 599.764C965.62 601.7 964.106 605.617 963.416 607.466L963.151 607.477C963.171 604.703 963.818 602.009 964.352 599.297Z"/>
	<path fill="#C4CDD5" d="M523.128 890.656C525.684 890.491 530.282 890.053 532.367 891.717C529.98 892.26 525.664 891.007 523.128 890.656Z"/>
	<path fill="#C4CDD5" d="M570.924 93.2368L572.077 93.3304C570.78 94.4238 569.315 94.7735 567.717 95.2703L566.423 94.455L566.86 93.7823L570.924 93.2368Z"/>
	<path fill="#C4CDD5" d="M685.169 862.705L686.144 863.13C684.923 864.485 681.977 864.981 680.204 865.565L679.028 865.488L679.21 864.953L685.169 862.705Z"/>
	<path fill="#C4CDD5" d="M400.891 876.463C403.593 877.3 405.84 878.374 408.297 879.759C405.252 879.293 403.086 878.703 400.891 876.463Z"/>
	<path fill="#C4CDD5" d="M348.433 872.005C350.748 872.161 352.527 873.411 354.373 874.699L353.705 875.015C351.641 874.35 350.167 873.256 348.433 872.005Z"/>
	<path fill="#C4CDD5" d="M358.296 862.355C361.074 862.211 362.812 863.134 365.133 864.562C362.497 864.301 360.643 863.495 358.296 862.355Z"/>
	<path fill="#C4CDD5" d="M540.621 81.9491C542.885 81.5768 545.152 81.2464 547.239 82.3686C544.915 82.9213 542.833 82.8743 540.621 81.9491Z"/>
</svg>
