<?xml version="1.0" encoding="utf-8" ?>
<svg xmlns="http://www.w3.org/2000/svg" xmlns:xlink="http://www.w3.org/1999/xlink" width="1986" height="1816">
	<path fill="#01064F" d="M0 0L1984.3 0C1985.36 1.87016 1985.79 3.16116 1985.88 5.30875C1986.59 20.5677 1986 36.0979 1986 51.3823L1986.01 141.639L1986.01 416.745L1986.01 1512.74L1986 1741.73C1986 1752.23 1987.47 1806.62 1985.51 1813.37C1985.25 1814.29 1984.73 1815.15 1984.3 1816L0 1816L0 0Z"/>
	<path fill="#F8CF66" d="M649.286 722.38C672.876 721.088 696.988 722.046 720.627 722.052L853.826 722.056L1232.34 722.09C1249.01 722.109 1327.8 720.105 1335.9 722.847C1339.43 724.04 1340.84 726.503 1342.48 729.587C1340.45 742.177 1277.01 845.806 1266.57 863.589L1123.19 1107.73C1114.71 1123.4 1105.12 1138.65 1096.1 1154.03L1042.93 1244.68L1016.14 1290.41C1011.1 1299.02 1006.24 1309.09 999.84 1316.72C997.669 1319.31 996.986 1320.48 993.506 1320.74C991.043 1320.92 988.488 1320.18 986.674 1318.44C979.208 1311.29 969.417 1290.84 963.862 1281.34L920.46 1207.31L712.671 853.177L671.004 782.175C662.408 767.67 652.751 753.118 645.244 738.042C644.199 735.944 642.857 733.218 643.191 730.78C643.746 726.729 646.334 724.83 649.286 722.38Z"/>
	<path fill="#F8CF66" d="M988.456 228.837C992.184 228.372 995.095 228.12 998.34 230.316C1004.03 234.167 1050.9 295.788 1060.82 308.281L1276.52 579.934L1333.32 651.472C1338.93 658.535 1353.28 673.959 1356.34 681.398C1356.66 682.167 1356.7 683.813 1356.76 684.642C1356.92 686.999 1356.24 689.082 1354.59 690.827C1352.78 692.75 1350.68 693.614 1348.07 693.866C1336.13 695.017 1323.28 694.102 1311.26 694.098L1236.56 694.086L997.364 694.08L760.652 694.096L683.861 694.099C670.499 694.1 656.794 694.759 643.48 693.908C638.898 693.615 633.253 693.335 629.863 690.102C629.389 688.666 628.917 687.334 628.988 685.799C629.206 681.037 632.255 676.259 635.03 672.548C657.928 641.922 683.062 612.417 706.865 582.44L861.811 387.257L945.777 281.43C959.02 264.737 973.411 243.576 988.456 228.837Z"/>
	<path fill="#F8CF66" d="M601.231 730.029C603.969 730.533 607.218 730.988 609.19 733.172C616.154 740.887 624.921 758.996 630.527 768.543L682.925 857.798L886.419 1204.52C894.235 1217.84 958.039 1322.92 957.376 1328.39C957.046 1331.12 955.366 1333.76 953.125 1335.33C951.131 1336.72 948.981 1337.03 946.615 1336.92C929.856 1336.16 911.331 1331.13 894.683 1328.19L784.271 1308.62C699.361 1294.88 614.684 1278.67 529.96 1263.75L446.252 1249.02C432.89 1246.67 417.92 1245.27 404.963 1241.39C402.388 1240.62 399.705 1238.77 398.705 1236.18C397.41 1232.81 398.53 1228.5 399.591 1225.23C402.15 1217.36 406.252 1209.56 409.34 1201.8L431.997 1144.31L506.27 956.845L566.284 805.452L584.314 759.942C587.438 752.014 590.23 743.21 594.082 735.644C595.563 732.735 598.443 731.452 601.231 730.029Z"/>
	<path fill="#F8CF66" d="M1380.8 730.044C1383.31 730.394 1386.2 730.858 1388.31 732.371C1393.62 736.169 1426.9 825.307 1433.39 841.678L1545.51 1124.59L1573.67 1195.67C1578.19 1207.1 1585.13 1220.38 1587.28 1232.41C1587.71 1234.84 1586.19 1236.76 1584.97 1238.73C1575.15 1244.85 1464.13 1262.24 1445.15 1265.59L1204.63 1308.06C1165.33 1314.41 1126.15 1321.91 1086.93 1328.72C1071.66 1331.37 1055.58 1335.8 1040.21 1336.87C1037.2 1337.08 1034.66 1337.08 1032.12 1335.21C1029.39 1333.2 1028.68 1330.62 1028.06 1327.45C1036.51 1306.94 1053.78 1281.52 1065.45 1261.62L1142.42 1130.41L1294.21 871.729C1320.34 827.209 1345.71 781.972 1372.83 738.063C1375.09 734.415 1377.04 732.196 1380.8 730.044Z"/>
	<path fill="#F8CF66" d="M944.356 227.681C945.632 227.542 946.689 227.794 947.946 228.007L949.113 229.833C948.891 231.331 948.526 232.476 947.738 233.78C944.559 239.047 940.111 243.405 936.304 248.201L911.703 279.407L828.014 384.839L673.745 579.15C647.507 612.192 622.051 646.517 594.596 678.534C592.132 681.408 590.339 682.322 586.692 683.162C576.269 680.888 500.024 620.249 485.353 609.119C471.803 598.7 413.812 558.093 407.656 548.191C406.211 545.867 405.704 543.786 406.697 541.146C407.855 538.065 410.476 536.284 413.14 534.567C431.744 522.578 451.73 512.069 470.928 501.005L580.697 437.717L944.356 227.681Z"/>
	<path fill="#F8CF66" d="M1036.77 227.393C1039.24 227.405 1040.96 227.903 1043.14 229.098C1081.2 249.882 1118.5 272.535 1156.08 294.22L1378.19 422.424L1508.56 497.695C1530.31 510.249 1553.88 521.884 1574.35 536.3C1577.88 538.788 1578.81 539.67 1579.55 543.889C1578.18 547.899 1576.04 550.48 1573.01 553.421C1565.81 560.419 1556.61 566.344 1548.58 572.411L1502.13 607.434C1486.72 619.133 1408.73 681.346 1397.53 683.55C1392.68 680.411 1388.91 676.152 1385.26 671.727C1358.99 639.921 1333.83 607.068 1308.18 574.756L1157.28 384.677L1075.8 282.113C1064.03 267.323 1047.5 249.044 1037.35 233.694C1035.76 231.279 1036.19 230.14 1036.77 227.393Z"/>
	<path fill="#F8CF66" d="M436.465 1275.7C553.597 1295.02 670.445 1316.97 787.362 1337.62L909.46 1359.17C930.735 1362.93 953.01 1365.57 973.857 1371.15C976.538 1373.28 978.045 1374.98 978.618 1378.46C980.019 1386.95 979.123 1396.74 979.125 1405.36L979.154 1460.16L979.163 1537.98C979.16 1551.38 980.056 1565.51 978.728 1578.81C978.437 1581.72 977.429 1583.75 975.78 1586.12C974.44 1586.73 973.124 1587.33 971.684 1587.68C968.452 1588.45 966.124 1587.78 963.223 1586.28C936.157 1572.3 909.844 1555.39 883.42 1540.15L715.99 1443.53L533.178 1338C500.968 1319.41 467.73 1301.66 436.325 1281.78C435.149 1279.22 435.794 1278.38 436.465 1275.7Z"/>
	<path fill="#F8CF66" d="M1545.91 1276.28C1548.02 1276.7 1548.39 1276.32 1549.75 1278.12C1549.48 1280.44 1548.97 1281.21 1547.16 1282.72C1537.01 1291.16 1514.01 1302.23 1501.64 1309.37L1389.51 1374.1L1150.46 1512.15C1108.65 1536.3 1067.13 1561.5 1024.73 1584.6C1020.4 1586.96 1017.77 1588.37 1012.75 1587.89C1011.03 1586.53 1009.16 1584.89 1008.31 1582.81C1007.01 1579.6 1006.88 1575.3 1006.77 1571.83C1005.76 1539.61 1007.02 1507.04 1006.99 1474.78C1006.95 1444.82 1005.49 1414.15 1007.01 1384.27C1007.21 1380.37 1007.62 1376.82 1009.1 1373.17C1022.12 1366.1 1058.4 1362.24 1074.2 1359.45L1170.54 1342.44L1545.91 1276.28Z"/>
	<path fill="#F8CF66" d="M392.761 577.575C393.838 577.66 394.067 577.647 395.244 577.916C398.526 578.665 401.096 580.586 403.802 582.485C430.847 601.463 456.722 622.673 483.098 642.605C509.815 662.796 537.66 682.206 563.544 703.424C565.734 705.219 570.114 708.516 570.947 711.192C571.907 714.271 569.15 721.578 568.055 724.72C555.372 761.126 539.495 797.045 525.263 832.933L440.271 1047.47L408.541 1127.45C403.098 1141.19 398.178 1155.46 392.037 1168.87C390.969 1171.2 390.473 1171.77 388.058 1172.57L386.92 1171.73C385.321 1167.48 384.983 1163.36 384.896 1158.86C383.978 1111.35 385.006 1063.59 385.004 1016.05L384.985 718.689L384.958 621.239C384.953 612.986 383.384 592.12 385.323 585.311C386.516 581.122 389.261 579.742 392.761 577.575Z"/>
	<path fill="#F8CF66" d="M1588.65 577.69C1593.06 578.086 1595.55 578.813 1598.59 582.184C1599.82 587.346 1599.95 592.854 1600.04 598.145C1600.85 645.987 1600.1 693.973 1600.09 741.827L1600.02 1023.65L1600.02 1122.02C1600.06 1133.95 1602.07 1159 1599.4 1169.51C1598.88 1171.57 1598.84 1171.18 1597.24 1172.19L1595.19 1171.47C1589.49 1164.45 1553.73 1069.34 1547.14 1052.71L1454.69 819.438C1447.33 800.86 1414.85 725.568 1414.03 711.152C1421.99 700.981 1436.22 692.456 1446.55 684.624L1497.08 646.336L1555.46 602.171C1566.33 593.953 1577.12 584.941 1588.65 577.69Z"/>
</svg>
