<?xml version="1.0" encoding="utf-8" ?><svg xmlns="http://www.w3.org/2000/svg" xmlns:xlink="http://www.w3.org/1999/xlink" width="162" height="162" viewBox="0 0 162 162"><path fill="#1E1E1F" d="M0 0L162 0L162 162L0 162L0 0Z"/><path fill="#C1AB66" d="M49.372 95.8458C49.6477 95.8128 49.9253 95.7983 50.203 95.8024C53.5168 95.8352 83.7498 105.254 88.2515 106.944C89.4285 107.386 90.991 107.919 91.8704 108.858C93.0415 110.109 93.5899 111.962 93.5231 113.65C93.4651 115.117 92.5488 116.932 91.4712 117.926C90.4862 118.834 89.0959 119.213 87.779 119.194C85.4371 119.16 82.8473 118.238 80.5884 117.63C74.8678 116.09 62.141 111.958 56.8907 111.814C54.4889 111.747 52.1651 112.567 50.4128 114.226C50.286 114.766 50.2903 114.798 50.5241 115.301C52.2457 116.349 55.6046 113.919 57.7519 114.243C60.1676 114.608 62.6416 115.459 65.0066 116.098L78.5986 119.76C81.3861 120.507 84.3141 121.408 87.2102 121.547C89.426 121.653 91.6127 121.101 93.28 119.581C95.5508 117.509 95.9479 114.67 96.0648 111.766C101.305 108.896 106.488 105.915 111.686 102.969C115.194 100.98 118.888 98.4596 122.762 97.3C124.317 96.8347 125.603 96.8636 127.186 97.1538C127.906 97.4018 128.647 97.7785 129.279 98.2041C131.027 99.3819 132.367 101.265 132.78 103.34C133.148 105.188 132.718 107.002 131.661 108.551C129.38 111.891 114.728 119.358 110.689 121.661C106.722 123.923 87.8153 135.402 84.4394 136.016C77.4905 137.279 64.2016 132.777 57.0603 130.853C52.5102 129.627 47.0691 127.54 42.3443 127.678C36.9562 127.835 32.3254 133.071 27.1152 133.992C26.2044 134.153 25.2011 134.114 24.4311 133.543C23.5883 132.918 23.234 131.865 23.1067 130.863C22.7358 127.943 22.9719 124.741 22.97 121.791C22.9679 118.402 22.7185 114.745 23.1381 111.385C23.2862 110.199 23.4947 108.833 24.2609 107.875C26.1634 105.494 40.0687 98.4363 43.4458 97.1742C45.4025 96.443 47.2964 96.0411 49.372 95.8458Z"/><path fill="#C1AB66" d="M89.5752 82.0117C92.1508 81.695 94.233 83.7382 96.5505 84.6022C97.6181 85.0002 98.9547 85.1076 100.083 85.2858C100.433 86.0649 101.04 88.2421 101.826 88.5364C102.397 88.7499 102.902 88.6073 103.504 88.9631C104.462 90.0855 104.655 91.5987 104.972 93.0002C107.336 93.7646 110.23 95.3088 112.096 96.9532C112.688 97.4752 112.857 97.7401 112.904 98.5099C111.762 101.198 98.6729 107.575 95.4431 109.334C93.5029 105.996 91.2517 104.958 87.6755 103.932C78.8444 101.022 69.8559 98.4698 60.9659 95.7351C62.4194 94.0299 63.869 92.3064 65.571 90.8406C67.4146 89.2528 69.4161 87.9431 71.2077 86.2694C72.6037 86.4676 74.0449 86.4753 75.4532 86.5404C76.496 85.391 77.3702 84.0761 78.2753 82.8172C80.5021 84.0109 82.7564 85.1524 85.0365 86.2408C86.7439 85.0967 87.9922 83.3333 89.5752 82.0117Z"/><path fill="#C1AB66" d="M56.0193 36.825C62.0665 36.0718 69.2555 37.6266 74.6488 40.3879C79.9469 43.1005 83.5765 46.9898 85.4069 52.6671C81.0673 48.9237 75.2404 46.5904 69.73 45.1908L75.642 47.9866C79.2158 49.7418 82.5638 51.507 85.5695 54.1509C81.3964 57.1932 76.4885 58.5203 71.3278 57.8936C66.1496 57.2648 62.2225 53.9961 59.1189 50.0059C56.6443 46.8243 53.6251 41.5136 54.137 37.4083C54.6707 36.8774 55.2913 36.9296 56.0193 36.825Z"/><path fill="#C1AB66" d="M92.0571 44.2364C91.5228 43.3191 91.859 41.8527 92.1134 40.8803C93.2711 36.4543 96.1069 33.196 100.028 30.923C103.155 29.11 106.675 27.9735 110.13 26.9715C110.518 32.3582 109.757 37.0958 106.106 41.325C103.686 44.1277 100.328 46.0672 96.5934 46.317C95.4727 46.3919 93.2423 46.5942 92.2773 45.9504L92.0981 45.7088C91.8979 45.5092 91.7871 45.2671 91.6566 45.0188L92.0571 44.2364Z"/><path fill="#181713" d="M92.0571 44.2364C93.2801 42.5397 96.9082 37.8897 98.8499 37.6259C98.9735 37.6092 99.0919 37.6092 99.2155 37.6201L99.2155 37.6199C96.1758 39.9258 94.2477 42.6248 92.0981 45.7088C91.8979 45.5092 91.7871 45.2671 91.6566 45.0188L92.0571 44.2364Z"/><path fill="#C1AB66" d="M88.228 37.8836C88.4686 37.9619 89.0215 38.2315 89.1449 38.442C95.2345 48.8303 85.9088 61.1569 84.7016 71.4166C84.4162 73.8427 86.1111 80.8909 86.0219 81.1922C85.7953 81.9584 84.6104 82.5923 83.9566 82.9722C83.4965 82.8812 83.08 82.7221 82.7348 82.3932C81.7184 81.4246 81.2091 79.4312 81.0395 78.0884C79.7192 67.6384 86.9555 59.1648 88.857 49.3426C89.6448 45.2732 88.3907 41.8772 88.228 37.8836Z"/></svg>